# xmcd
#
# Track frame offsets: 
#        150
#        9249
#        17421
#        29774
#        40043
#        46664
#        63943
#        72938
#        86113
#        95149
#
# Disc length: 1383 seconds
#
# Revision: 0
# Processed by: cddbd v1.5.2PL0 Copyright (c) Steve Scherf et al.
# Submitted via: ExactAudioCopy v1.0b3
#
DISCID=7605650a
DTITLE=Nyrkkitappelu - Bangkok Shocks, Saigon Shakes, Nyrkkitappelu Ro
DTITLE=cks
DYEAR=2013
DGENRE=Punk
TTITLE0=Ämmäbändit
TTITLE1=Tahdon olla hippi
TTITLE2=Alfajuntit
TTITLE3=Hyvännäköinen aikuiseksi
TTITLE4=Ei sääntöjä
TTITLE5=Vihaan mun bändikavereita
TTITLE6=Ne on suudelmia (ei mustelmia)
TTITLE7=Tyttöjen farkut
TTITLE8=Voi pyhä äiti, nyt mennään!
TTITLE9=Käytetään päihteitä
EXTD=
EXTT0=
EXTT1=
EXTT2=
EXTT3=
EXTT4=
EXTT5=
EXTT6=
EXTT7=
EXTT8=
EXTT9=
PLAYORDER=
